PathFileType	4	(X/Y/Z)	/Users/itak/Documents/Research/Walk-IL/dataset/trc/00121_00007.trc
DataRate	CameraRate	NumFrames	NumMarkers	Units	OrigDataRate	OrigDataStartFrame	OrigNumFrames
100.000000	100.000000	4	53	mm	100.000000	0	722
Frame#	Time	RPSI			LPSI			L3			STRN			T10			C7			CLAV			RBAK			LBAK			LSHO			LUPA			LAEL			LAOL			LWTS			LWPS			LFRA			LIFD			LHPS			LHTS			RSHO			RUPA			RAEL			RAOL			RWTS			RWPS			RFRA			RIFD			RHTS			RHPS			RBHD			LFHD			RFHD			LBHD			LHIP			RHIP			RASI			LASI			LKNE			LTHI			LANK			LTIP			LTOE			LMT1			LMT5			LHEE			RKNE			RTHI			RANK			RTIP			RTOE			RMT1			RMT5			RHEE			
		X1	Y1	Z1	X2	Y2	Z2	X3	Y3	Z3	X4	Y4	Z4	X5	Y5	Z5	X6	Y6	Z6	X7	Y7	Z7	X8	Y8	Z8	X9	Y9	Z9	X10	Y10	Z10	X11	Y11	Z11	X12	Y12	Z12	X13	Y13	Z13	X14	Y14	Z14	X15	Y15	Z15	X16	Y16	Z16	X17	Y17	Z17	X18	Y18	Z18	X19	Y19	Z19	X20	Y20	Z20	X21	Y21	Z21	X22	Y22	Z22	X23	Y23	Z23	X24	Y24	Z24	X25	Y25	Z25	X26	Y26	Z26	X27	Y27	Z27	X28	Y28	Z28	X29	Y29	Z29	X30	Y30	Z30	X31	Y31	Z31	X32	Y32	Z32	X33	Y33	Z33	X34	Y34	Z34	X35	Y35	Z35	X36	Y36	Z36	X37	Y37	Z37	X38	Y38	Z38	X39	Y39	Z39	X40	Y40	Z40	X41	Y41	Z41	X42	Y42	Z42	X43	Y43	Z43	X44	Y44	Z44	X45	Y45	Z45	X46	Y46	Z46	X47	Y47	Z47	X48	Y48	Z48	X49	Y49	Z49	X50	Y50	Z50	X51	Y51	Z51	X52	Y52	Z52	X53	Y53	Z53	

1	0	-60.13382720947266	1133.02001953125	1252.19482421875	-57.15670776367188	1133.046752929688	1117.901245117188	-64.97028350830078	1164.455810546875	1182.297241210938	149.9185638427734	1369.082763671875	1182.937377929688	-106.7913589477539	1315.576171875	1178.22119140625	-76.61783599853516	1608.154663085938	1161.975341796875	111.2130279541016	1503.2822265625	1176.768432617188	-128.7762603759766	1424.45751953125	1250.96044921875	-79.03358459472656	1586.948364257812	1060.78955078125	10.61147499084473	1573.807739257812	994.9673461914062	-5.51904821395874	1441.505493164062	924.3069458007812	17.93177604675293	1221.005981445312	909.18212890625	-55.24465942382812	1209.378295898438	956.733154296875	116.3489151000977	967.53076171875	976.2473754882812	40.70654678344727	938.6878051757812	937.3893432617188	38.49953079223633	1105.326904296875	911.478271484375	128.5740356445312	776.0977783203125	1007.353637695312	70.99338531494141	864.4779052734375	943.9454345703125	135.0656890869141	878.0409545898438	970.646484375	-25.17146301269531	1592.687866210938	1345.481201171875	-42.2233772277832	1520.400390625	1409.17578125	-47.70383453369141	1225.148193359375	1430.81689453125	-58.88052368164062	1223.736450195312	1335.985229492188	95.44073486328125	981.7478637695312	1405.57177734375	22.68663787841797	964.0927734375	1441.312133789062	-22.83752632141113	1151.652099609375	1444.68994140625	119.0492172241211	788.6885375976562	1381.317016601562	125.2975234985352	873.3523559570312	1407.625244140625	61.95065307617188	865.4268798828125	1442.728271484375	-31.41368865966797	1779.693115234375	1250.820068359375	112.9849090576172	1848.175170898438	1097.766845703125	128.5915679931641	1854.229614257812	1227.560302734375	-55.64910507202148	1777.147827148438	1118.11572265625	36.59799194335938	1042.227416992188	1013.002380371094	66.87028503417969	1039.262084960938	1371.227661132812	146.7073059082031	1112.789672851562	1318.177734375	143.5093841552734	1108.497680664062	1052.790649414062	50.80366897583008	540.7042846679688	1047.485595703125	30.76484107971191	687.1624755859375	1019.151123046875	-66.25151062011719	42.36730575561523	1063.294311523438	-53.54473876953125	295.4708251953125	1026.35498046875	165.1732635498047	40.39811706542969	1118.693359375	83.69287109375	43.74825668334961	1153.720825195312	58.64839553833008	41.87775421142578	1039.990600585938	-136.6737213134766	43.12553024291992	1125.087768554688	55.00434875488281	546.4674682617188	1337.53955078125	86.03172302246094	825.097900390625	1363.796630859375	-43.2769660949707	34.11458206176758	1319.635620117188	29.21123504638672	413.7700500488281	1348.533935546875	188.8529205322266	49.30958557128906	1260.795654296875	127.4539108276367	41.66007614135742	1218.94970703125	92.08653259277344	42.41871643066406	1338.090454101562	-101.9576416015625	36.95418930053711	1271.165405273438	
2	0.01	-60.09211349487305	1133.029541015625	1252.188232421875	-57.11799621582031	1133.0498046875	1117.890380859375	-64.93650054931641	1164.461547851562	1182.301391601562	149.9776458740234	1369.059692382812	1182.952514648438	-106.7091293334961	1315.59765625	1178.226928710938	-76.53690338134766	1608.162231445312	1162.024047851562	111.2683944702148	1503.263549804688	1176.819702148438	-128.7134094238281	1424.442138671875	1250.965576171875	-78.91991424560547	1586.971313476562	1060.85595703125	10.71799182891846	1573.82763671875	995.0126953125	-5.415055274963379	1441.525512695312	924.350341796875	18.00529289245605	1221.020629882812	909.22314453125	-55.17519760131836	1209.40478515625	956.7803344726562	116.3297653198242	967.5135498046875	976.2940063476562	40.6765022277832	938.7064208984375	937.418212890625	38.55484771728516	1105.344482421875	911.5265502929688	128.4242858886719	776.0845947265625	1007.402038574219	70.95165252685547	864.4815673828125	943.9688720703125	135.0062561035156	877.99951171875	970.6832885742188	-25.0941333770752	1592.627319335938	1345.531982421875	-42.16481781005859	1520.33544921875	1409.195190429688	-47.62642669677734	1225.089233398438	1430.826416015625	-58.79995727539062	1223.683837890625	1335.967407226562	95.52765655517578	981.6837158203125	1405.573608398438	22.74659538269043	964.0447387695312	1441.314331054688	-22.77593612670898	1151.584716796875	1444.689697265625	119.1774215698242	788.6242065429688	1381.303955078125	125.3673553466797	873.2996826171875	1407.665161132812	62.01280212402344	865.3510131835938	1442.723999023438	-31.36931991577148	1779.66552734375	1250.89404296875	113.032958984375	1848.22802734375	1097.924194335938	128.6420440673828	1854.220825195312	1227.67919921875	-55.55587768554688	1777.158203125	1118.244506835938	36.62680053710938	1042.227172851562	1012.988708496094	66.90390777587891	1039.253784179688	1371.21728515625	146.7592163085938	1112.771484375	1318.16015625	143.5370025634766	1108.498168945312	1052.77392578125	50.82015228271484	540.6962280273438	1047.484252929688	30.78183364868164	687.1594848632812	1019.13134765625	-66.25225830078125	42.35763931274414	1063.289428710938	-53.53166961669922	295.4579467773438	1026.341430664062	165.1721649169922	40.40032196044922	1118.691650390625	83.68462371826172	43.74372482299805	1153.720947265625	58.64465713500977	41.87086868286133	1039.983764648438	-136.6741485595703	43.11536407470703	1125.086669921875	55.03529357910156	546.4585571289062	1337.5341796875	86.05933380126953	825.0900268554688	1363.786010742188	-43.28011703491211	34.10992431640625	1319.629150390625	29.24356269836426	413.7657165527344	1348.529174804688	188.8542938232422	49.30925750732422	1260.794799804688	127.442253112793	41.65288162231445	1218.947998046875	92.08518218994141	42.42316818237305	1338.088623046875	-101.9632263183594	36.95072937011719	1271.161865234375	
3	0.02	-60.03455352783203	1133.040405273438	1252.18115234375	-57.06898880004883	1133.051635742188	1117.87939453125	-64.89031219482422	1164.46923828125	1182.309326171875	150.0544128417969	1369.030029296875	1182.971435546875	-106.6108551025391	1315.6220703125	1178.237670898438	-76.42977142333984	1608.1708984375	1162.09130859375	111.3409576416016	1503.242065429688	1176.884887695312	-128.6339416503906	1424.426513671875	1250.975463867188	-78.78182983398438	1587	1060.934936523438	10.85172080993652	1573.852661132812	995.0728759765625	-5.287237167358398	1441.548706054688	924.404296875	18.09747886657715	1221.039428710938	909.276611328125	-55.08681106567383	1209.438720703125	956.837646484375	116.3067779541016	967.489990234375	976.351318359375	40.64017486572266	938.7293701171875	937.4514770507812	38.62374877929688	1105.3662109375	911.5842895507812	128.2443542480469	776.059326171875	1007.450134277344	70.89455413818359	864.4837646484375	943.9950561523438	134.9290008544922	877.9451904296875	970.7276000976562	-24.9947338104248	1592.556030273438	1345.595947265625	-42.08899307250977	1520.254150390625	1409.225463867188	-47.52003479003906	1225.021728515625	1430.848388671875	-58.69548797607422	1223.620849609375	1335.958618164062	95.64620208740234	981.6048583984375	1405.58203125	22.82741546630859	963.9881591796875	1441.325927734375	-22.6906623840332	1151.509399414062	1444.697021484375	119.3263931274414	788.5435180664062	1381.303466796875	125.4606323242188	873.2313842773438	1407.728271484375	62.09717559814453	865.2694091796875	1442.727905273438	-31.3040943145752	1779.6318359375	1250.9931640625	113.1025466918945	1848.289184570312	1098.12060546875	128.7095642089844	1854.2080078125	1227.8271484375	-55.43612670898438	1777.172241210938	1118.401000976562	36.66049957275391	1042.226440429688	1012.971984863281	66.94828796386719	1039.24169921875	1371.205322265625	146.8214416503906	1112.747924804688	1318.140014648438	143.5719604492188	1108.497680664062	1052.755493164062	50.84247970581055	540.6863403320312	1047.4833984375	30.80937004089355	687.1546020507812	1019.109558105469	-66.25372314453125	42.34881591796875	1063.284057617188	-53.51622009277344	295.4435119628906	1026.326782226562	165.1701812744141	40.40262222290039	1118.690307617188	83.67799377441406	43.74242401123047	1153.722778320312	58.64073944091797	41.86497116088867	1039.97705078125	-136.674560546875	43.10362243652344	1125.08544921875	55.07338333129883	546.4473876953125	1337.526977539062	86.08202362060547	825.0823364257812	1363.781127929688	-43.28243255615234	34.10588836669922	1319.622314453125	29.28627395629883	413.7588806152344	1348.52392578125	188.8552856445312	49.30949020385742	1260.794067382812	127.4324111938477	41.64481353759766	1218.9462890625	92.08379364013672	42.42941284179688	1338.084838867188	-101.9699020385742	36.94878387451172	1271.157348632812	
4	0.03	-59.96240234375	1133.051635742188	1252.17431640625	-57.01120376586914	1133.051635742188	1117.869750976562	-64.83205413818359	1164.478271484375	1182.322509765625	150.1462249755859	1368.99462890625	1182.993408203125	-106.5021591186523	1315.647216796875	1178.25341796875	-76.29766082763672	1608.180053710938	1162.177368164062	111.4290313720703	1503.21875	1176.961791992188	-128.5402221679688	1424.412353515625	1250.992065429688	-78.62783050537109	1587.032592773438	1061.021240234375	11.00638103485107	1573.881469726562	995.1467895507812	-5.141419410705566	1441.573608398438	924.4668579101562	18.20402908325195	1221.062133789062	909.3410034179688	-54.98294448852539	1209.478637695312	956.9020385742188	116.2813491821289	967.4601440429688	976.4161376953125	40.59969711303711	938.7555541992188	937.486572265625	38.70271682739258	1105.390747070312	911.6480102539062	128.0436401367188	776.0208740234375	1007.492553710938	70.82301330566406	864.48388671875	944.02099609375	134.8368835449219	877.8796997070312	970.7766723632812	-24.87658309936523	1592.479370117188	1345.6708984375	-41.9977912902832	1520.160522460938	1409.267944335938	-47.38574981689453	1224.950927734375	1430.886596679688	-58.56974792480469	1223.550048828125	1335.968505859375	95.79508209228516	981.515869140625	1405.60009765625	22.92779922485352	963.927001953125	1441.349975585938	-22.58193969726562	1151.433349609375	1444.715454101562	119.4861602783203	788.4512329101562	1381.323486328125	125.5765380859375	873.1494750976562	1407.81787109375	62.20192718505859	865.1895141601562	1442.742919921875	-31.21509170532227	1779.594604492188	1251.117065429688	113.1963500976562	1848.353271484375	1098.346435546875	128.7951965332031	1854.19140625	1227.99853515625	-55.29352188110352	1777.190307617188	1118.576416015625	36.69740676879883	1042.224853515625	1012.953552246094	67.00232696533203	1039.226196289062	1371.193237304688	146.8907775878906	1112.720336914062	1318.119384765625	143.6129760742188	1108.495483398438	1052.736938476562	50.87099838256836	540.6752319335938	1047.483154296875	30.84986305236816	687.1477661132812	1019.087646484375	-66.25568389892578	42.34204864501953	1063.27880859375	-53.49906921386719	295.4284057617188	1026.312622070312	165.1670379638672	40.4051399230957	1118.689453125	83.67489624023438	43.74535751342773	1153.7265625	58.63712310791016	41.86070251464844	1039.971435546875	-136.6750640869141	43.09145355224609	1125.083984375	55.1174201965332	546.4343872070312	1337.518188476562	86.09752655029297	825.0772094726562	1363.78515625	-43.28351974487305	34.10287475585938	1319.61572265625	29.33918380737305	413.7493591308594	1348.518188476562	188.8556365966797	49.31027221679688	1260.79345703125	127.4256820678711	41.63665390014648	1218.944702148438	92.08285522460938	42.43699645996094	1338.0791015625	-101.9765930175781	36.94858932495117	1271.15234375	
